<?xml version="1.0" encoding="UTF-8"?>
<svg version="1.1" xmlns="http://www.w3.org/2000/svg" width="240" height="240">
<path d="M0 0 C79.2 0 158.4 0 240 0 C240 79.2 240 158.4 240 240 C160.8 240 81.6 240 0 240 C0 160.8 0 81.6 0 0 Z " fill="#FC4B02" transform="translate(0,0)"/>
<path d="M0 0 C1.49317245 -0.00065712 1.49317245 -0.00065712 3.01651001 -0.00132751 C6.30645365 0.00076232 9.59588757 0.02410307 12.88574219 0.04760742 C15.16688763 0.05320267 17.44803668 0.0574731 19.72918701 0.06047058 C25.73309278 0.0719249 31.73678083 0.10139738 37.74060059 0.13458252 C43.86707616 0.1652706 49.99358691 0.17897323 56.12011719 0.1940918 C68.14106157 0.22626635 80.16178721 0.27903932 92.18261719 0.34057617 C92.18261719 7.93057617 92.18261719 15.52057617 92.18261719 23.34057617 C100.10261719 23.34057617 108.02261719 23.34057617 116.18261719 23.34057617 C116.22893296 27.28770892 116.26863283 31.23413502 116.29248047 35.18139648 C116.3072931 37.17202254 116.3327271 39.16256054 116.35839844 41.15307617 C116.41167848 51.70252555 115.57118369 60.75277162 110.74511719 70.21557617 C110.22667236 71.23639282 110.22667236 71.23639282 109.69775391 72.27783203 C101.05978377 88.44133516 85.94953336 98.91234078 68.80761719 104.65307617 C52.61469816 108.97001324 35.1983503 107.21029395 20.30761719 99.52807617 C4.34683195 90.10316144 -7.05053186 77.16538822 -12.81738281 59.34057617 C-13.93187958 53.24459385 -14.0111362 47.23000844 -14.05566406 41.04370117 C-14.06373581 39.97311462 -14.07180756 38.90252808 -14.0801239 37.79949951 C-14.09389967 35.54709464 -14.10465064 33.29466947 -14.11254883 31.04223633 C-14.12414109 28.73390611 -14.14470496 26.42560415 -14.17407227 24.11743164 C-14.21650513 20.78016984 -14.23287676 17.44369829 -14.24316406 14.10620117 C-14.26067215 13.07182922 -14.27818024 12.03745728 -14.29621887 10.97174072 C-14.2932933 10.01354431 -14.29036774 9.0553479 -14.28735352 8.06811523 C-14.29615288 6.80405853 -14.29615288 6.80405853 -14.30513 5.51446533 C-13.81738281 3.34057617 -13.81738281 3.34057617 -12.40159607 1.56639099 C-8.35067905 -0.35515093 -4.42695083 -0.05082885 0 0 Z " fill="#FEFDFD" transform="translate(68.8173828125,60.659423828125)"/>
<path d="M0 0 C0.74446381 0.00359528 1.48892761 0.00719055 2.25595093 0.01089478 C3.0363826 0.01074875 3.81681427 0.01060272 4.62089539 0.01045227 C7.21273534 0.01115158 9.80450432 0.01894481 12.39633179 0.02676392 C14.18852194 0.02862803 15.9807126 0.03005196 17.77290344 0.03105164 C22.49938351 0.03487733 27.22583305 0.04470805 31.95230103 0.05575562 C36.77153104 0.06596863 41.59076596 0.07054902 46.41000366 0.07559204 C55.87290773 0.08633027 65.3357891 0.10340731 74.79867554 0.12442017 C74.946043 4.37404445 75.03343269 8.6229973 75.11117554 12.87442017 C75.15307007 14.06164673 75.1949646 15.24887329 75.23812866 16.47207642 C75.39505242 27.9588954 72.14941644 37.30998233 64.74008179 46.15957642 C57.42494552 53.56302418 46.2718989 59.13810488 35.73617554 59.37442017 C24.99968602 59.21575283 14.32626139 54.87370906 6.27133179 47.76113892 C-3.49748695 36.90401677 -6.38734681 24.99961526 -6.32632446 10.81192017 C-6.33019165 9.89346313 -6.33405884 8.9750061 -6.33804321 8.02871704 C-6.33675415 7.15666626 -6.33546509 6.28461548 -6.33413696 5.38613892 C-6.33244507 4.19444092 -6.33244507 4.19444092 -6.33071899 2.97866821 C-6.05549246 -0.96537991 -3.31202244 0.00675 0 0 Z " fill="#FC4B03" transform="translate(86.20132446289063,83.875579833984375)"/>
</svg>
