<svg xmlns="http://www.w3.org/2000/svg" width="512" height="512" viewBox="0 0 464 200">
<g>
<path d="M 464.00 0.00 L 464.00 200.00 L 0.00 200.00 L 164.75 199.92 C303.76,199.85 328.56,199.63 323.50,198.52 C311.47,195.87 299.18,189.85 290.25,182.23 C287.36,179.77 285.01,177.47 285.03,177.13 C285.05,176.78 285.66,175.72 286.38,174.76 C287.61,173.14 288.07,173.23 293.32,176.07 C301.49,180.50 313.47,184.65 323.63,186.57 C339.91,189.65 362.58,187.02 376.95,180.39 L 384.39 176.95 L 388.50 181.15 L 384.00 185.08 C377.67,190.60 367.57,195.66 358.36,197.92 L 350.50 199.86 L 464.00 200.00 L 464.00 132.50 L 461.12 138.50 C455.51,150.19 446.35,156.03 432.47,156.79 C425.42,157.17 412.92,155.25 411.18,153.52 C410.76,153.09 414.19,133.90 420.59,101.00 C422.46,91.38 424.00,83.42 424.00,83.33 C424.00,82.86 437.16,81.83 437.59,82.26 C437.86,82.53 436.49,91.18 434.54,101.47 C432.60,111.77 431.00,120.70 431.00,121.31 C431.00,121.93 433.59,119.93 436.75,116.87 C444.05,109.80 448.17,107.00 451.26,107.00 C454.77,107.00 460.21,110.97 462.25,115.02 C463.93,118.37 464.00,116.32 464.00,59.25 L 464.00 0.00 ZM 60.19 35.25 C61.38,37.86 62.47,40.00 62.63,40.00 C62.78,40.00 67.50,34.04 73.12,26.75 C78.74,19.46 85.75,10.46 88.71,6.75 L 94.09 0.00 L 286.57 0.00 C118.45,0.00 109.11,0.09 108.62,1.75 C108.33,2.71 106.69,10.93 104.98,20.00 C100.33,44.65 97.18,61.11 96.42,64.75 L 95.75 68.00 L 89.43 68.00 C85.96,68.00 82.84,67.56 82.51,67.01 C81.98,66.15 84.50,51.47 89.55,26.09 C90.36,22.02 90.79,18.46 90.52,18.18 C89.86,17.52 87.86,19.90 73.50,38.44 C66.80,47.10 60.55,54.21 59.34,54.55 C55.76,55.58 53.56,53.49 50.63,46.33 C42.19,25.63 38.67,17.94 37.97,18.68 C37.54,19.13 35.30,29.85 33.00,42.50 C30.70,55.15 28.65,66.06 28.44,66.75 C28.00,68.21 18.43,68.51 17.56,67.09 C17.25,66.59 19.51,52.98 22.59,36.84 C25.66,20.70 28.42,5.81 28.72,3.75 L 29.26 0.00 L 70.04 0.00 C56.82,0.00 46.00,0.22 46.00,0.49 C46.00,1.13 57.47,29.22 60.19,35.25 ZM 79.40 155.16 C79.11,155.62 75.98,156.00 72.44,156.00 C66.59,156.00 66.00,155.81 66.00,153.92 C66.00,152.21 73.03,113.59 74.40,107.75 C74.63,106.79 74.49,106.00 74.09,106.00 C73.35,106.00 45.78,140.40 45.17,142.08 C44.98,142.59 43.31,143.00 41.45,143.00 C39.01,143.00 37.75,142.40 36.92,140.84 C35.40,138.02 25.16,113.43 23.76,109.25 C23.16,107.46 22.35,106.00 21.96,106.00 C21.58,106.00 19.34,116.01 16.99,128.25 C14.64,140.49 12.35,151.51 11.89,152.75 C11.17,154.68 10.33,155.00 5.91,155.00 L 0.77 155.00 L 1.45 150.25 C2.01,146.30 8.17,113.40 12.11,93.25 L 13.14 88.00 L 28.91 88.00 L 30.78 92.25 C31.82,94.59 35.53,103.59 39.03,112.25 C42.53,120.91 45.69,128.00 46.04,128.00 C46.39,128.00 53.15,119.60 61.07,109.34 C68.98,99.08 76.06,90.08 76.80,89.34 C78.72,87.43 92.00,87.47 92.00,89.39 C92.00,91.52 79.99,154.21 79.40,155.16 ZM 244.05 154.98 C241.87,156.09 239.72,156.98 239.29,156.96 C236.64,156.83 231.85,153.67 229.38,150.43 C226.72,146.94 226.50,145.98 226.50,138.07 C226.50,130.22 226.79,128.97 229.92,123.20 C235.62,112.67 243.53,108.05 257.23,107.24 C264.11,106.83 266.05,106.39 266.40,105.11 C266.65,104.23 267.61,99.11 268.54,93.73 C269.48,88.36 270.56,83.77 270.95,83.53 C271.34,83.29 274.72,82.78 278.45,82.40 C284.81,81.74 285.19,81.82 284.63,83.60 C284.07,85.41 271.00,154.25 271.00,155.44 C271.00,155.75 267.80,156.00 263.89,156.00 L 256.77 156.00 L 257.47 151.37 C257.85,148.83 258.40,146.13 258.69,145.37 C259.67,142.80 257.36,143.99 252.69,148.48 C250.12,150.94 246.23,153.86 244.05,154.98 ZM 113.33 156.07 C110.28,157.22 110.18,157.22 106.45,155.59 C102.32,153.79 98.22,148.71 97.41,144.36 C96.36,138.76 97.74,129.45 100.40,124.20 C103.63,117.83 108.31,113.31 115.00,110.12 C119.92,107.78 121.66,107.50 131.50,107.53 C142.58,107.56 150.00,109.08 150.00,111.33 C150.00,111.97 148.20,121.95 146.00,133.50 C143.80,145.05 142.00,154.84 142.00,155.25 C142.00,155.66 138.85,156.00 135.00,156.00 C127.14,156.00 127.04,155.86 128.97,147.53 C129.48,145.34 129.70,143.37 129.47,143.14 C129.24,142.91 126.07,145.51 122.42,148.93 C118.77,152.34 114.68,155.55 113.33,156.07 ZM 384.14 154.07 C378.64,156.90 367.24,157.68 361.68,155.61 C354.09,152.78 350.00,146.47 350.00,137.58 C350.00,121.32 362.31,108.43 378.97,107.23 C390.98,106.38 398.83,110.94 401.01,120.06 C404.13,133.03 396.96,147.48 384.14,154.07 ZM 322.17 154.25 C317.07,156.50 306.14,157.48 301.76,156.06 C292.22,152.98 288.52,147.63 288.61,137.00 C288.69,127.66 291.61,121.33 298.88,114.80 C305.41,108.92 312.66,106.56 322.11,107.24 C331.09,107.88 336.06,110.97 338.53,117.45 C340.70,123.11 340.14,132.64 337.28,139.06 C334.66,144.93 327.93,151.70 322.17,154.25 ZM 177.29 148.45 L 175.65 156.00 L 169.38 156.00 C165.94,156.00 162.87,155.59 162.56,155.10 C162.25,154.60 163.89,144.21 166.20,132.00 C169.29,115.66 170.12,110.43 173.01,108.76 C174.37,107.98 176.19,107.99 178.91,108.00 C179.24,108.00 179.58,108.00 179.94,108.00 L 184.76 108.00 L 183.48 114.75 C182.78,118.46 182.38,121.69 182.61,121.92 C182.83,122.16 184.58,120.52 186.49,118.28 C190.73,113.33 200.02,107.00 203.05,107.00 C207.00,107.00 211.76,110.80 213.49,115.32 C214.96,119.19 214.97,120.45 213.59,129.53 C212.75,135.02 211.03,143.10 209.75,147.50 L 207.43 155.50 L 202.08 155.81 C201.90,155.82 201.71,155.83 201.53,155.84 C198.22,156.03 196.38,156.14 195.56,155.27 C194.53,154.19 195.12,151.56 196.46,145.62 C196.52,145.37 196.58,145.11 196.64,144.84 C200.74,126.67 200.96,117.00 197.27,117.00 C194.56,117.00 185.67,127.19 182.16,134.33 C180.38,137.94 178.19,144.29 177.29,148.45 ZM 131.67 60.50 L 130.39 67.50 L 123.69 67.80 C117.29,68.08 117.00,67.99 117.00,65.80 C117.00,60.64 125.00,21.62 126.21,20.85 C126.92,20.40 130.14,20.02 133.38,20.02 L 139.25 20.00 L 138.59 23.25 C138.22,25.04 137.67,28.52 137.36,31.00 L 136.81 35.50 L 140.65 29.93 C148.35,18.77 148.46,18.68 153.55,19.25 C156.05,19.53 158.30,19.97 158.55,20.22 C158.80,20.47 158.53,22.05 157.95,23.72 C157.08,26.21 156.18,26.88 153.03,27.38 C150.09,27.85 148.20,29.11 145.04,32.69 C139.42,39.07 133.23,51.96 131.67,60.50 ZM 305.90 147.05 C308.46,149.61 309.56,150.08 311.78,149.53 C316.61,148.35 319.09,145.98 322.02,139.79 C329.58,123.81 324.97,110.82 313.54,115.88 C307.68,118.47 303.89,126.05 303.22,136.53 C302.75,143.73 302.81,143.97 305.90,147.05 ZM 369.32 149.01 C377.72,152.48 385.92,142.17 386.79,127.02 C387.16,120.60 386.94,119.14 385.24,117.05 C383.73,115.18 382.36,114.62 379.49,114.70 C371.46,114.93 365.90,123.27 365.21,136.13 C364.76,144.43 365.76,147.55 369.32,149.01 ZM 428.13 148.92 C431.58,150.30 433.02,150.17 437.68,148.06 C442.99,145.65 446.48,140.44 448.63,131.72 C450.45,124.35 449.81,119.55 446.76,117.62 C442.74,115.08 428.42,134.13 426.38,144.74 C425.85,147.50 426.10,148.11 428.13,148.92 ZM 112.91 144.84 C113.55,146.03 114.68,147.00 115.42,147.00 C117.31,147.00 124.25,139.84 127.96,134.06 C131.02,129.30 135.00,119.44 135.00,116.63 C135.00,113.49 125.73,113.98 120.52,117.39 C116.01,120.35 112.73,127.48 112.22,135.44 C111.94,139.90 112.20,143.51 112.91,144.84 ZM 241.93 144.87 C242.56,146.04 243.68,147.00 244.43,147.00 C245.17,147.00 248.38,144.20 251.55,140.77 C257.48,134.37 262.65,124.93 263.67,118.65 C264.19,115.42 264.00,115.04 261.53,114.42 C258.29,113.60 252.19,115.27 248.87,117.89 C243.04,122.48 238.79,139.00 241.93,144.87 Z" fill="rgb(19,172,144)"/>
</g>
</svg>