<?xml version="1.0" encoding="UTF-8"?>
<svg id="Layer_1" xmlns="http://www.w3.org/2000/svg" version="1.1" viewBox="0 0 102 32" width="512" height="512">
  <!-- Generator: Adobe Illustrator 29.7.1, SVG Export Plug-In . SVG Version: 2.1.1 Build 8)  -->
  <defs>
    <style>
      .st0 {
        fill: #8c42c6;
      }
    </style>
  </defs>
  <path class="st0" d="M32.2,12.3c1.3-1.1,2.8-1.6,4.6-1.6s4.4,1,5.8,2.9c1.4,1.9,1.7,4.3,1.7,6.6v8.5c0,1.5-1.3,2.8-2.8,2.8s-1.8-.5-2.3-1.2-.3-.5-.4-.8,0-.7,0-1.1v-10.3c0-1-.8-1.8-1.8-1.8s-1.8.8-1.8,1.8v4c0,1.9,0,3.7,0,5.6s0,.8,0,1.1c0,1.5-1.3,2.8-2.8,2.8s-2.8-1.2-2.8-2.8v-10.8c0-1-.8-1.8-1.8-1.8s-1.8.8-1.8,1.8v4c-.1,1.9,0,3.7,0,5.6v1.1h0c0,1.5-1.3,2.8-2.8,2.8s-2.8-1.2-2.8-2.8v-15.2c0-1.6,1.2-2.8,2.8-2.8s1.3.3,1.7.6c1.4-.6,2.9-.7,4.4-.4.6.1,1.2.3,1.8.6s1.3.8,1.4.9h-.2Z"/>
  <path class="st0" d="M60.2.5c-1.5,0-2.8,1.2-2.8,2.8v25.4c0,1.5,1.2,2.8,2.8,2.8s2.8-1.2,2.8-2.8V3.3c0-1.5-1.3-2.8-2.8-2.8Z"/>
  <g>
    <path class="st0" d="M50.8,10.7c-1.5,0-2.8,1.3-2.8,2.8v15.2c0,1.5,1.2,2.8,2.8,2.8s2.8-1.2,2.8-2.8v-15.2c0-1.5-1.3-2.8-2.8-2.8Z"/>
    <path class="st0" d="M50.8,1.9c-1.5,0-2.8,1.2-2.8,2.8s1.2,2.8,2.8,2.8,2.8-1.3,2.8-2.8-1.3-2.8-2.8-2.8Z"/>
  </g>
  <g>
    <path class="st0" d="M74.1,9.8c-2.2,0-4.2.9-5.7,2.6-.8.9-1.4,1.9-1.8,3s-.7,2.6-.4,3.8c.3,1,1.2,1.8,2.3,1.8h11.1c1.8,0,2.5-1.7,2.4-3.3s-.9-3.8-2.2-5.3c-1.5-1.7-3.5-2.6-5.7-2.6ZM77.8,16.5h-7.3c.8-1.4,2.1-2.2,3.6-2.2s2.8.8,3.6,2.2h.1Z"/>
    <path class="st0" d="M75.8,25.9c1-.5,1.5-1.6,2.5-2s2.3-.1,2.9.7c1.6,2.1-.5,4.6-2.3,5.6-.4.2-.8.4-1.2.6s-.8.3-1.3.4-1,.2-1.4.2h-1.3c-.4,0-.9,0-1.3-.1s-.9-.2-1.3-.3-.8-.3-1.2-.5-.3-.2-.5-.3c-1.8-1.1-3.9-3.5-2.3-5.6.7-.9,1.9-1.2,2.9-.7s1.5,1.6,2.5,2c1,.5,2.4.6,3.3,0"/>
  </g>
  <path class="st0" d="M8,15.9c0-.1.1-.2.2-.3.3-.2.7-.3,1-.3.5,0,1,.2,1.5.4.6.2,1.3.5,2,.4,2-.1,2.9-2.5,1.7-4-1-1.3-3-1.7-4.6-1.8-2.2,0-4.5.7-6,2.3-.8.9-1.3,2-1.4,3.1-.2,1.6.3,3.2,1.4,4.3.9,1,2.2,1.7,3.5,2.2.6.2,1.3.4,2,.7.9.4,2.2.6,2.4,1.8s-.2,1-.5,1.4c-.5.4-1.1.5-1.7.5s-1.4-.3-2-.7-1.1-1-1.7-1.5c-.6-.4-1.4-.6-2.2-.4s-1.3.8-1.6,1.5c-.3.8-.1,1.8.3,2.6s1.1,1.4,1.9,1.9c2.2,1.4,5,1.9,7.6,1.1s4.6-2.9,5.2-5.5c.2-1.1.2-2.2-.1-3.2-.6-1.6-2.1-2.8-3.6-3.5s-.3-.1-.4-.2c-.8-.3-1.6-.6-2.4-.9-.5-.2-.9-.2-1.4-.4s-.6-.3-.8-.6c-.2-.3-.2-.7,0-1h-.3Z"/>
  <path class="st0" d="M91.4,15.9c0-.1,0-.2.2-.3.3-.2.7-.3,1-.3.5,0,1,.2,1.5.4.6.2,1.3.5,2,.4,2-.1,2.9-2.5,1.7-4-1-1.3-3-1.7-4.6-1.8-2.2,0-4.5.7-6,2.3-.8.9-1.3,2-1.4,3.1-.2,1.6.3,3.2,1.4,4.3.9,1,2.2,1.7,3.5,2.2.6.2,1.3.4,2,.7.9.4,2.2.6,2.4,1.8s-.2,1-.5,1.4c-.5.4-1.1.5-1.7.5s-1.4-.3-2-.7-1.1-1-1.7-1.5c-.6-.4-1.4-.6-2.2-.4s-1.3.8-1.6,1.5c-.3.8,0,1.8.3,2.6s1.1,1.4,1.9,1.9c2.2,1.4,5,1.9,7.6,1.1,2.5-.8,4.6-2.9,5.2-5.5.2-1.1.2-2.2,0-3.2-.6-1.6-2.1-2.8-3.6-3.5,0,0-.3-.1-.4-.2-.8-.3-1.6-.6-2.4-.9-.5-.2-.9-.2-1.4-.4s-.6-.3-.8-.6c-.2-.3-.2-.7,0-1h-.3Z"/>
</svg>