<svg xmlns="http://www.w3.org/2000/svg" width="512" height="512" viewBox="1 1 223 223">
<g>
<path d="M 126.03 164.99 C124.98,165.54 120.93,166.00 117.02,166.00 C110.80,166.00 109.60,165.69 107.45,163.55 C104.23,160.32 104.36,157.64 108.13,149.91 C110.71,144.61 114.40,140.38 129.40,125.50 C151.00,104.08 154.08,99.40 154.80,86.87 C155.82,69.21 145.57,54.10 128.45,48.06 C122.92,46.11 120.48,45.83 111.68,46.16 C102.53,46.49 100.66,46.89 94.85,49.75 C86.87,53.68 78.95,61.74 75.20,69.75 C72.85,74.76 72.51,76.72 72.55,85.00 C72.59,93.80 72.84,94.96 75.90,100.69 C79.04,106.55 84.33,112.19 97.83,124.04 C101.99,127.69 103.00,129.20 103.00,131.71 C103.00,139.59 100.07,141.00 83.63,141.00 C76.77,141.00 70.45,140.73 69.58,140.39 C67.53,139.61 67.53,135.39 69.58,134.61 C70.45,134.27 74.95,134.00 79.58,134.00 C87.89,134.00 88.00,133.97 88.00,131.50 L 88.00 129.00 L 70.75 128.98 C61.26,128.98 52.89,128.58 52.15,128.11 C51.41,127.64 50.97,126.41 51.16,125.38 C51.49,123.69 52.68,123.47 62.67,123.22 C74.18,122.93 76.95,121.92 75.64,118.51 C75.21,117.37 73.43,117.00 68.48,117.00 C57.77,117.00 53.81,113.85 49.86,102.20 C46.92,93.50 46.69,78.77 49.35,68.34 C50.73,62.93 50.91,60.69 50.08,59.16 C48.55,56.30 48.61,56.19 52.50,54.56 C54.89,53.57 56.00,52.45 56.00,51.05 C56.00,49.28 55.37,49.00 51.43,49.00 C45.98,49.00 43.00,47.61 43.00,45.07 C43.00,42.51 44.88,42.00 54.41,42.00 L 62.65 42.00 L 70.02 36.42 C74.07,33.35 79.45,29.79 81.98,28.51 C102.55,18.09 134.27,19.94 152.76,32.65 C159.03,36.95 167.96,46.36 171.49,52.39 C179.47,66.01 182.09,84.81 178.07,99.49 C174.15,113.75 171.36,117.78 152.03,137.00 C142.35,146.62 132.97,156.63 131.18,159.24 C129.39,161.84 127.07,164.43 126.03,164.99 ZM 119.44 111.78 C117.37,114.74 110.87,114.87 108.00,112.00 C106.16,110.16 106.00,108.67 106.00,93.00 L 106.00 76.00 L 100.22 76.00 C92.44,76.00 90.00,74.25 90.00,68.64 C90.00,66.31 90.54,63.86 91.20,63.20 C92.06,62.34 98.57,62.00 114.16,62.00 C134.66,62.00 135.99,62.11 136.96,63.93 C138.47,66.75 138.23,71.22 136.44,73.78 C135.09,75.71 133.98,76.00 127.94,76.00 L 121.00 76.00 L 121.00 92.78 C121.00,106.34 120.70,109.98 119.44,111.78 ZM 122.00 200.15 C118.61,202.64 111.28,203.39 107.50,201.64 C105.85,200.87 103.17,198.83 101.55,197.10 C99.06,194.46 98.53,192.97 98.19,187.68 C97.83,182.00 98.05,181.09 100.52,178.16 C104.22,173.76 108.00,172.00 113.70,172.00 C122.59,172.01 128.99,178.32 129.00,187.10 C129.00,192.10 126.43,196.90 122.00,200.15 ZM 42.82 57.25 C42.53,59.26 41.86,59.53 36.41,59.79 C31.80,60.02 30.00,59.70 29.00,58.50 C27.22,56.35 28.64,55.22 33.50,54.91 C41.56,54.39 43.17,54.79 42.82,57.25 Z" fill="rgb(14,32,59)"/>
<path d="M 0.00 0.00 L 225.00 0.00 L 204.25 0.09 C185.67,0.17 183.98,0.31 188.09,1.44 C195.61,3.52 205.16,9.12 210.65,14.68 C216.26,20.35 222.40,31.47 223.49,37.94 C223.87,40.17 224.36,42.00 224.59,42.00 C224.81,42.00 225.00,32.55 225.00,21.00 L 225.00 225.00 L 0.00 225.00 ZM 126.03 164.99 C127.07,164.43 129.39,161.84 131.18,159.24 C132.97,156.63 142.35,146.62 152.03,137.00 C171.36,117.78 174.15,113.75 178.07,99.49 C182.09,84.81 179.47,66.01 171.49,52.39 C167.96,46.36 159.03,36.95 152.76,32.65 C134.27,19.94 102.55,18.09 81.98,28.51 C79.45,29.79 74.07,33.35 70.02,36.42 L 62.65 42.00 L 54.41 42.00 C44.88,42.00 43.00,42.51 43.00,45.07 C43.00,47.61 45.98,49.00 51.43,49.00 C55.37,49.00 56.00,49.28 56.00,51.05 C56.00,52.45 54.89,53.57 52.50,54.56 C48.61,56.19 48.55,56.30 50.08,59.16 C50.91,60.69 50.73,62.93 49.35,68.34 C46.69,78.77 46.92,93.50 49.86,102.20 C53.81,113.85 57.77,117.00 68.48,117.00 C73.43,117.00 75.21,117.37 75.64,118.51 C76.95,121.92 74.18,122.93 62.67,123.22 C52.68,123.47 51.49,123.69 51.16,125.38 C50.97,126.41 51.41,127.64 52.15,128.11 C52.89,128.58 61.26,128.98 70.75,128.98 L 88.00 129.00 L 88.00 131.50 C88.00,133.97 87.89,134.00 79.58,134.00 C74.95,134.00 70.45,134.27 69.58,134.61 C67.53,135.39 67.53,139.61 69.58,140.39 C70.45,140.73 76.77,141.00 83.63,141.00 C100.07,141.00 103.00,139.59 103.00,131.71 C103.00,129.20 101.99,127.69 97.83,124.04 C84.33,112.19 79.04,106.55 75.90,100.69 C72.84,94.96 72.59,93.80 72.55,85.00 C72.51,76.72 72.85,74.76 75.20,69.75 C78.95,61.74 86.87,53.68 94.85,49.75 C100.66,46.89 102.53,46.49 111.68,46.16 C120.48,45.83 122.92,46.11 128.45,48.06 C145.57,54.10 155.82,69.21 154.80,86.87 C154.08,99.40 151.00,104.08 129.40,125.50 C114.40,140.38 110.71,144.61 108.13,149.91 C104.36,157.64 104.23,160.32 107.45,163.55 C109.60,165.69 110.80,166.00 117.02,166.00 C120.93,166.00 124.98,165.54 126.03,164.99 ZM 119.44 111.78 C120.70,109.98 121.00,106.34 121.00,92.78 L 121.00 76.00 L 127.94 76.00 C133.98,76.00 135.09,75.71 136.44,73.78 C138.23,71.22 138.47,66.75 136.96,63.93 C135.99,62.11 134.66,62.00 114.16,62.00 C98.57,62.00 92.06,62.34 91.20,63.20 C90.54,63.86 90.00,66.31 90.00,68.64 C90.00,74.25 92.44,76.00 100.22,76.00 L 106.00 76.00 L 106.00 93.00 C106.00,108.67 106.16,110.16 108.00,112.00 C110.87,114.87 117.37,114.74 119.44,111.78 ZM 122.00 200.15 C126.43,196.90 129.00,192.10 129.00,187.10 C128.99,178.32 122.59,172.01 113.70,172.00 C108.00,172.00 104.22,173.76 100.52,178.16 C98.05,181.09 97.83,182.00 98.19,187.68 C98.53,192.97 99.06,194.46 101.55,197.10 C103.17,198.83 105.85,200.87 107.50,201.64 C111.28,203.39 118.61,202.64 122.00,200.15 ZM 225.00 225.00 L 224.86 182.50 L 223.09 188.69 C217.67,207.61 200.94,221.95 181.50,224.33 C179.85,224.53 188.96,224.77 201.75,224.85 L 225.00 225.00 ZM 0.00 0.00 L 0.15 40.50 L 2.02 35.24 C8.05,18.26 18.08,8.23 34.86,2.42 L 41.50 0.12 ZM 0.10 204.25 L 0.00 225.00 L 23.25 224.88 C38.07,224.80 44.69,224.47 41.50,223.99 C32.29,222.59 21.41,217.26 15.06,211.06 C9.27,205.39 3.71,195.75 1.21,187.00 C0.45,184.36 0.18,188.59 0.10,204.25 ZM 42.82 57.25 C43.17,54.79 41.56,54.39 33.50,54.91 C28.64,55.22 27.22,56.35 29.00,58.50 C30.00,59.70 31.80,60.02 36.41,59.79 C41.86,59.53 42.53,59.26 42.82,57.25 Z" fill="rgb(253,217,5)"/>
</g>
</svg>