<?xml version="1.0" encoding="utf-8"?>
<!-- Generator: Adobe Illustrator 28.0.0, SVG Export Plug-In . SVG Version: 6.00 Build 0)  -->
<svg version="1.1" id="Layer_1" xmlns="http://www.w3.org/2000/svg" xmlns:xlink="http://www.w3.org/1999/xlink" x="0px" y="0px"
	 viewBox="0 0 1000 1000" style="enable-background:new 0 0 1000 1000;" xml:space="preserve">
<style type="text/css">
	.st0{fill:#DA6C3D;}
	.st1{fill:#522A48;}
	.st2{fill:#FFFFFF;}
</style>
<rect x="213.5" y="332.6" class="st0" width="571" height="167.1"/>
<rect x="213.5" y="499.4" class="st1" width="571" height="167.1"/>
<path class="st2" d="M603.8,362.8c-0.8,4.8-1.7,9.6-2.5,14.6h-13.5c0.8-5,1.5-9.8,2.2-14.6H603.8z"/>
<path class="st2" d="M559.2,446.9c3.8,0,7.5,0.3,11.1-0.1c3.6-0.4,6.1-3.1,6.9-7c1.6-7.9,2.8-15.8,4.1-23.8c0.4-2.4,0.6-4.8,1.1-7.2
	c0.1-0.6,0.8-1.4,1.2-1.4c4.8-0.1,9.5-0.1,14.4-0.1c-1,6.9-1.7,13.7-3,20.3c-1.3,6.5-1.5,13.4-5,19.2c4.1,0,8,0.3,11.8-0.1
	c3.5-0.4,5.7-3.3,6.7-7.1c0.8-3.1,1.2-6.4,1.7-9.6c1.2-7.1,2.2-14.3,3.4-21.4c0.1-0.5,0.6-1.2,0.9-1.2c4.9-0.1,9.8-0.1,14.9-0.1
	c-0.8,5.6-1.4,11-2.3,16.4c-0.9,5.3-1.7,10.8-3,15.9c-1.7,6.6-5.1,12.1-9.7,16.7c-4,4-8.6,5.7-13.4,7.2c-1.2,0.4-2.5,0.3-3.7,0.3
	c-27.2,0-54.4,0-81.6,0l1.9-16.8c6.7,0.1,13.5,0,20.2,0.1c4.1,0.1,7.4-3.7,8.4-7.6c2.2-8.5,2.8-17.4,4.3-26.1c0.4-2,0.8-3.9,1.3-6
	h15.2C564.4,420.6,564,434.2,559.2,446.9 M454.5,463.8c-54.8,0-109.5,0-164.3,0c-1.9,0-3,0.8-3.5,2.6c-1.1,3.5-3.3,6.1-5.4,8.6
	c-1.5,1.7-3.4,2.9-5.2,4.1c-6.4,4.3-13.5,4.9-20.7,5.1c-0.2,0-0.3-0.1-0.7-0.2c0.1-1.2,0.2-2.5,0.4-3.7c0.5-2.9,1.1-5.7,1.6-8.6
	c0.2-1.1,0.5-1.4,1.4-1.4c1.1,0,2.1-0.1,3.2-0.3c7.5-1.7,12-6.9,13.3-16.1c1.3-9.4,2.8-18.7,4.3-28.1c1-6,2-12.1,3.1-18.2h15.4
	c-2,13.2-4.1,26.3-6.1,39.6c59,0,118,0,177,0"/>
<path class="st2" d="M682.7,463.7c0.5-3.8,1.1-7.5,1.6-11.1c0.2-1.1,0.5-2.3,0.5-3.4c0-1.7,0.7-2.1,2.1-2.1c11.5,0.1,23,0,34.5,0
	c4.1,0,4.2,0,4.2-4.8c0-2.7-0.1-5.6-0.7-8.2c-0.8-4-3.2-6.8-6.4-8.6c-5.1-2.8-10.5-3.8-16.1-3.8c-0.4,0-0.8,0-1.4-0.1
	c0.8-4.8,1.6-9.5,2.4-14.3c8,0.3,16-0.4,23.4,3.7c4.6,2.6,8.6,6.2,11.3,11.5c3.5,6.8,3.6,14.2,2.9,21.6c-0.5,5.2-1.4,10.4-2.2,15.6
	c-0.2,1.3-0.6,2.5-1,3.9H682.7z"/>
<path class="st2" d="M671,463.7h-15.5c4.2-26.8,8.4-53.5,12.5-80.2h15.4C679.3,410.3,675.1,437,671,463.7"/>
<path class="st2" d="M711.7,397.7c0.7-4.8,1.3-9.3,2-14h13.9c-0.3,2.1-0.5,4.1-0.8,6.1c-0.4,2.2-0.8,4.5-1.3,6.7
	c-0.1,0.5-0.5,1.2-0.8,1.2C720.4,397.7,716.2,397.7,711.7,397.7"/>
<path class="st2" d="M574.3,397.7c0.8-4.8,1.6-9.4,2.4-14h13.5c-0.4,2.7-0.8,5.3-1.1,7.8c-0.2,1.7-0.4,3.3-0.7,4.9
	c-0.1,0.4-0.5,1.2-0.8,1.2C583.1,397.7,578.7,397.7,574.3,397.7"/>
<path class="st2" d="M300.3,383.7c-0.5,2.5-1.1,4.7-1.5,7c-0.3,1.8-0.5,3.7-0.8,5.5c-0.1,0.5-0.6,1.3-1,1.4
	c-4.2,0.1-8.4,0.1-12.7,0.1c0.7-4.8,1.3-9.3,2-14H300.3z"/>
<path class="st2" d="M595.3,397.6c0.6-4.5,1.2-8.8,1.9-13.1c0.1-0.3,0.6-0.8,0.9-0.8c4.3-0.1,8.6,0,13,0c-0.8,4.7-1.6,9.3-2.4,14
	H595.3z"/>
<polygon class="st2" points="270.7,544.4 252.8,544.4 254.5,532.2 304.2,532.2 302.5,544.4 284.6,544.4 277.5,595 263.6,595 "/>
<polygon class="st2" points="311.2,532.2 325.1,532.2 321.8,555.6 348.7,555.6 352,532.2 365.8,532.2 357.1,595 343.2,595 
	347,567.9 320.1,567.9 316.3,595 302.4,595 "/>
<polygon class="st2" points="379.2,532.2 421.9,532.2 420.1,545 391.2,545 389.6,556.7 416.8,556.7 415,569.5 387.8,569.5 
	386,582.3 416.5,582.3 414.7,595 370.4,595 "/>
<path class="st2" d="M499.7,548.5c-1.2-1.7-2.7-2.9-4.5-3.8c-1.8-0.9-4.1-1.3-6.7-1.3c-2.6,0-5.1,0.5-7.5,1.5
	c-2.4,1-4.5,2.4-6.4,4.2c-1.9,1.8-3.4,4-4.7,6.4c-1.3,2.5-2.1,5.2-2.5,8.1c-0.4,3-0.3,5.7,0.2,8.1c0.6,2.5,1.5,4.6,2.8,6.4
	c1.3,1.8,3,3.2,5.1,4.2c2,1,4.3,1.5,6.8,1.5c2.8,0,5.4-0.6,7.8-1.8c2.4-1.2,4.4-2.8,6.1-5l10.3,8.6c-3.2,3.7-7,6.5-11.3,8.3
	c-4.3,1.8-8.6,2.7-13,2.7c-4.9,0-9.3-0.8-13.3-2.3c-3.9-1.5-7.2-3.7-9.8-6.6c-2.6-2.9-4.5-6.3-5.6-10.4c-1.1-4.1-1.3-8.6-0.6-13.7
	c0.7-5,2.2-9.6,4.5-13.7c2.3-4.1,5.1-7.6,8.5-10.4c3.4-2.9,7.3-5.1,11.7-6.6c4.4-1.5,9-2.3,13.9-2.3c1.8,0,3.6,0.2,5.5,0.5
	c1.9,0.3,3.7,0.8,5.5,1.6c1.8,0.7,3.5,1.7,5,2.8c1.6,1.2,2.9,2.6,4,4.4L499.7,548.5z"/>
<polygon class="st2" points="521.7,532.2 535.6,532.2 532.3,555.6 559.2,555.6 562.5,532.2 576.3,532.2 567.5,595 553.7,595 
	557.5,567.9 530.6,567.9 526.8,595 512.9,595 "/>
<polygon class="st2" points="589.6,532.2 632.4,532.2 630.6,545 601.7,545 600,556.7 627.3,556.7 625.5,569.5 598.3,569.5 
	596.5,582.3 626.9,582.3 625.2,595 580.8,595 "/>
<polygon class="st2" points="645.6,532.2 687.8,532.2 686,545 657.7,545 655.9,557.7 682.1,557.7 680.2,570.5 654,570.5 650.6,595 
	636.8,595 "/>
<polygon class="st2" points="687.4,582.3 724.6,544.4 693.9,544.4 695.6,532.2 743.1,532.2 741.4,544.4 704.8,582.3 737.2,582.3 
	735.4,595 685.6,595 "/>
<path class="st2" d="M523.9,447.1c-6.2,0-10-0.5-11.2-1.3c0,0,3.2-4.4,5.9-9.2c2.5-4.2,4-8.4,4.6-13c2.2-17.4-8.8-26.8-22.6-26.8
	c-12.4,0-20.9,7.2-26.9,18.8c-1.3,2.4-2.1,5.3-2.5,8.4c-0.5,4.4-0.1,8.7,1.2,12.7c1.5,4.5,4.1,9.1,4.1,9.1
	c-1.6,0.9-5.4,1.3-11.5,1.3l-56.3,0l-1.7,16.8h58.3c11.6,0,20.9-2.2,27.9-6.7c5.9,4.5,14.7,6.7,26.4,6.7h9.7l3.4-16.8H523.9z
	 M509.9,424.4c-0.7,6-3.4,10.9-8.1,14.4c-1.8,1.5-4,2.8-6.5,4.2c-2.1-1.2-4-2.7-5.6-4.2c-3.9-3.6-5.6-8.5-4.9-14.4
	c0.4-3.9,1.9-7.2,4.2-9.8c2.6-2.8,5.9-4.3,9.9-4.3s7,1.5,9,4.3C509.7,417.2,510.3,420.5,509.9,424.4z"/>
<polygon class="st2" points="511.2,372.2 497.8,372.2 496.1,385.9 509.5,385.9 "/>
</svg>
